# xmcd
#
# Track frame offsets:
#	150
#	14586
#	29549
#	44488
#	58947
#	74123
#	87971
#	102745
#	116921
#	131224
#	145662
#	160617
#	175148
#	189345
#
# Disc length: 2697 seconds
#
# Revision: 7
# Processed by: cddbd v1.5.2PL0 Copyright (c) Steve Scherf et al.
# Submitted via: EasyCDDAExtractor 12.0.4.1
#
DISCID=d50a870e
DTITLE=ชรินทร์ นันทนาคร
DYEAR=1900
DGENRE=Chamber Music
TTITLE0=ซ่อนรัก รักซ้อน
TTITLE1=ในอ้อมกอด
TTITLE2=เนื้อทองของพี่
TTITLE3=หักใจไม่คิด
TTITLE4=ยังคอย
TTITLE5=ทาสทรมาน
TTITLE6=สไบแพร
TTITLE7=ขวัญกระเจิง
TTITLE8=นิราศนุช
TTITLE9=ไกลบ้าน
TTITLE10=แสนแสบ
TTITLE11=ท่าฉลอม
TTITLE12=ทุ่งรวงทอง
TTITLE13=สาวนครไชยศรี
EXTD=
EXTT0=
EXTT1=
EXTT2=
EXTT3=
EXTT4=
EXTT5=
EXTT6=
EXTT7=
EXTT8=
EXTT9=
EXTT10=
EXTT11=
EXTT12=
EXTT13=
PLAYORDER=
